<svg width="180" height="180" viewBox="0 0 180 180" fill="none" xmlns="http://www.w3.org/2000/svg">
<rect width="180" height="180" rx="8" fill="#EEEEEE"/>
<path d="M32.7687 118.015C29.4014 113.232 27.7914 107.51 28.1926 101.751V78.2487C27.7678 72.4482 29.3536 66.6756 32.7034 61.8282C35.7323 58.0886 40.9077 56.2293 48.2296 56.2502C55.5514 56.2711 60.5089 57.911 63.102 61.1701C66.2639 65.2088 67.8068 70.2023 67.4493 75.2404V80.7557H53.917V74.7703C53.8988 73.1955 53.7568 71.6242 53.4921 70.0698C53.3285 68.9445 52.7896 67.9002 51.9558 67.0928C51.4412 66.6696 50.8436 66.3491 50.1982 66.15C49.5527 65.9509 48.8724 65.8773 48.1969 65.9333C47.2267 65.7945 46.2356 65.9457 45.3583 66.3662C44.481 66.7867 43.7601 67.4562 43.2939 68.2836C42.4344 70.4843 42.0561 72.8309 42.1825 75.1777V105.01C42.0334 107.373 42.4703 109.735 43.4573 111.905C43.9289 112.687 44.6287 113.321 45.4707 113.727C46.3128 114.133 47.2603 114.295 48.1969 114.192C49.1172 114.317 50.0551 114.16 50.8768 113.744C51.6986 113.327 52.3622 112.673 52.773 111.873C53.5637 109.668 53.9076 107.339 53.7863 105.01V98.7431H67.3186V104.164C67.717 109.277 66.3 114.368 63.2981 118.611C60.4217 122.058 55.4533 123.75 48.393 123.75C41.3327 123.75 35.8086 121.87 32.7687 118.015Z" fill="#111111"/>
<path d="M85.5511 56.25H100.166L112.5 123.75H100.351L98.1622 108.836H87.9253L85.4586 123.654H73.125L85.5511 56.25ZM96.8055 100.35L92.9204 73.2214L89.0662 100.35H96.8055Z" fill="#111111"/>
<path d="M122.701 66.4217H112.5V56.25H146.25V66.4217H136.175V123.75H122.669L122.701 66.4217Z" fill="#111111"/>
</svg>
